<svg width="512" height="512" viewBox="0 0 512 512" fill="none" xmlns="http://www.w3.org/2000/svg">
<path d="M255.702 0C78.0207 7.16076 -2.84744 147.083 0.245116 263.529C-5.01041 368.68 75.1463 475.249 154.164 501.961V503.634H157.388V505.307H160.611V506.98H165.446V508.654H170.281V510.327H175.116V512H181.563V510.327H184.787V508.654H186.398V506.98H188.01V505.307H189.622V501.961H191.234V455.111H189.622V456.784H179.952V458.458H152.552V456.784H144.494V455.111H138.047V453.438H134.824V451.765H131.6V450.092H128.377V448.418H125.153V446.745H123.541V445.072H120.318V443.399H118.706V441.725H117.095V440.052H115.483V438.379H113.871V436.706H112.259V435.033H110.648V431.686H109.036V430.013H107.424V426.667H105.813V423.32H104.201V419.974H102.589V414.954H100.977V411.608H99.3658V408.261H97.754V404.915H96.1423V403.242H94.5306V401.569V399.895H92.9189V398.222H91.3072V396.549H89.6955V393.203H88.0837V391.529H86.472V389.856H84.8603V388.183H83.2486V386.51H80.0251V384.837H78.4134V383.163H76.8017V381.49H73.5783V379.817H71.9666V378.144H68.7431V376.471H67.1314V373.124H65.5197V366.431H68.7431V364.758H86.472V366.431H91.3072V368.105H94.5306V369.778H97.754V371.451H100.977V373.124H102.589V374.797H104.201V376.471H107.424V378.144H109.036V379.817H110.648V383.163H112.259V384.837H113.871V386.51H115.483V388.183H117.095V391.529H118.706V393.203H120.318V396.549H121.93V398.222H123.541V399.895H125.153V403.242H126.765V404.915H128.377V406.588H129.988V408.261H131.6H133.212V409.935H134.824V411.608H136.435V413.281H139.659V414.954H142.882V416.627H147.717V418.301H154.164V419.974H171.893V418.301H178.34V416.627H184.787V414.954H188.01V413.281H191.234V408.261H192.845V401.569H194.457V396.549H196.069V393.203H197.681V389.856H199.292V386.51H200.904V384.837H202.516V383.163H204.127V381.49H205.739V379.817H204.127V378.144H192.845V376.471H184.787V374.797H176.728V373.124H171.893V371.451H165.446V369.778H160.611V368.105H157.388V366.431H152.552V364.758H149.329V363.085H146.106V361.412H142.882V359.739H139.659V358.065H138.047V356.392H134.824V354.719H133.212V353.046H129.988V351.373H128.377V349.699H126.765V348.026H125.153V346.353H123.541V344.68H121.93V343.007H120.318V341.333H118.706V339.66H117.095V337.987H115.483V336.314H113.871V334.641H112.259V331.294H110.648V329.621H109.036V326.275H107.424V324.601H105.813V321.255H104.201V317.909H102.589V314.562H100.977V309.542H99.3658V306.196H97.754V299.503H96.1423V294.484H94.5306V286.118H92.9189V277.752H91.3072V256H89.6955V244.288H91.3072V227.556H92.9189V220.863H94.5306V215.843H96.1423V210.824H97.754V205.804H99.3658V202.458H100.977V199.111H102.589V195.765H104.201V194.092H105.813V190.745H107.424V189.072H109.036V185.725H110.648V184.052H112.259V182.379H113.871V180.706H115.483V172.34H113.871V163.974H112.259V130.51H113.871V122.144H115.483V117.124H117.095V112.105H118.706V107.085H134.824V108.758H142.882V110.431H147.717V112.105H152.552V113.778H157.388V115.451H160.611V117.124H163.834V118.797H167.058V120.471H170.281V122.144H173.505V123.817H176.728V125.49H178.34V127.163H181.563V128.837H184.787V130.51H186.398V132.183H189.622V133.856H196.069V132.183H204.127V130.51H212.186V128.837H221.856V127.163H239.585V125.49H271.82V127.163H289.548V128.837H299.219V130.51H307.277V132.183H315.336V133.856H321.783V132.183H325.006V130.51H326.618V128.837H329.841V127.163H331.453V125.49H334.677V123.817H337.9V122.144H341.123V120.471H344.347V118.797H347.57V117.124H350.794V115.451H354.017V113.778H358.852V112.105H362.076V110.431H368.523V108.758H374.97V107.085H391.087V110.431H392.698V113.778H394.31V120.471H395.922V127.163H397.534V137.203H399.145V157.281H397.534V168.993H395.922V174.013H394.31V179.033H395.922V180.706H397.534V182.379H399.145V185.725H400.757V187.399H402.369V189.072H403.98V192.418H405.592V194.092H407.204V197.438H408.816V200.784H410.427V204.131H412.039V207.477H413.651V212.497H415.263V217.516H416.874V224.209H418.486V234.248H420.098V269.386H418.486V282.771H416.874V291.137H415.263V297.83H413.651V302.85H412.039V307.869H410.427V312.889H408.816V316.235H407.204V319.582H405.592V322.928H403.98V324.601H402.369V327.948H400.757V331.294H399.145V332.967H397.534V334.641H395.922V337.987H394.31V339.66H392.698V341.333H391.087V343.007H389.475V344.68H387.863V346.353H386.252V348.026H384.64V349.699H381.416V351.373H379.805V353.046H378.193V354.719H374.97V356.392H373.358V358.065H370.134V359.739H366.911V361.412H365.299V363.085H362.076V364.758H357.241V366.431H354.017V368.105H349.182V369.778H344.347V371.451H339.512V373.124H333.065V374.797H326.618V376.471H316.948V378.144H305.666V381.49H307.277V383.163H308.889V386.51H310.501V388.183H312.113V391.529H313.724V394.876H315.336V399.895H316.948V406.588H318.559V416.627H320.171V504.471L324.2 509.49L329.036 511.163C420.61 488.634 514.056 387.183 511.966 265.203C510.444 138.812 425.697 7.74826 255.702 0Z" fill="black"/>
</svg>
