<svg width="513" height="513" viewBox="0 0 513 513" fill="none" xmlns="http://www.w3.org/2000/svg">
<path d="M291.069 205.215L283.353 216.27V170.667H180.252V511.309H283.353V316.459L285.458 306.785L287.562 297.803L292.471 286.057L299.485 275.692L312.11 264.637L321.227 260.491L328.942 257.727L336.658 256.345H356.296L364.011 257.727L373.83 260.491L381.545 264.637L388.559 271.547L394.17 277.765L398.378 286.057L402.586 297.803L405.392 309.549L406.795 316.459V511.309H512V274.31L510.597 261.873L507.792 250.127L504.285 236.999L498.674 223.179L491.66 210.742L482.542 198.305L476.932 192.777L467.112 183.104L454.488 175.503L441.863 169.285L427.836 164.448L415.912 161.684L400.482 160.302H379.441L366.816 161.684L352.789 164.448L338.762 169.285L323.332 176.885L308.603 187.25L299.485 195.541L291.069 205.215Z" fill="black" stroke="black"/>
<path d="M5.61096 171.358H112.921L112.219 512H5.61096V171.358Z" fill="black" stroke="black"/>
<circle cx="59.1723" cy="59.1723" r="59.1723" fill="black"/>
</svg>
